<?xml version="1.0" encoding="UTF-8"?>
<svg id="Calque_2" data-name="Calque 2" xmlns="http://www.w3.org/2000/svg" viewBox="0 0 340.07 117.02">
  <defs>
    <style>
      .cls-1 {
        fill: #fff;
      }

      .cls-2 {
        isolation: isolate;
      }

      .cls-3 {
        fill: #ccc;
      }
    </style>
  </defs>
  <g id="Calque_1-2" data-name="Calque 1">
    <circle class="cls-1" cx="56" cy="49.3" r="20"/>
    <rect class="cls-1" x="56" y="48.3" width="50" height="2"/>
    <circle class="cls-1" cx="106" cy="49.3" r="6"/>
    <rect class="cls-1" x="67.5" y="45.95" width="2" height="50" transform="translate(-26.3 43.76) rotate(-30)"/>
    <circle class="cls-1" cx="81" cy="92.6" r="6"/>
    <rect class="cls-1" x="18.5" y="69.95" width="50" height="2" transform="translate(-39.7 73.16) rotate(-60.01)"/>
    <circle class="cls-1" cx="31" cy="92.6" r="6"/>
    <rect class="cls-1" x="6" y="48.3" width="50" height="2"/>
    <circle class="cls-1" cx="6" cy="49.3" r="6"/>
    <rect class="cls-1" x="42.5" y="2.65" width="2" height="50" transform="translate(-8 25.45) rotate(-30)"/>
    <circle class="cls-1" cx="31" cy="6" r="6"/>
    <rect class="cls-1" x="43.5" y="26.65" width="50" height="2" transform="translate(10.31 73.15) rotate(-60.01)"/>
    <circle class="cls-1" cx="81" cy="6" r="6"/>
    <g class="cls-2">
      <path class="cls-1" d="M137.31,36.74l1.18-2.5c1.66,1.5,4.51,2.59,7.39,2.59,3.87,0,5.54-1.5,5.54-3.46,0-5.47-13.57-2.02-13.57-10.33,0-3.46,2.69-6.4,8.58-6.4,2.62,0,5.34.7,7.2,1.98l-1.06,2.56c-1.95-1.25-4.16-1.82-6.14-1.82-3.81,0-5.44,1.6-5.44,3.55,0,5.47,13.57,2.05,13.57,10.27,0,3.42-2.75,6.37-8.67,6.37-3.42,0-6.78-1.15-8.58-2.82Z"/>
      <path class="cls-1" d="M163.36,19.69h-7.68v-2.78h18.53v2.78h-7.68v19.61h-3.17v-19.61Z"/>
      <path class="cls-1" d="M190.85,33.7h-11.9l-2.46,5.6h-3.3l10.14-22.4h3.17l10.18,22.4h-3.36l-2.46-5.6ZM189.73,31.14l-4.83-10.98-4.83,10.98h9.66Z"/>
      <path class="cls-1" d="M214.97,39.3l-4.83-6.88c-.45.03-.93.06-1.41.06h-5.54v6.82h-3.2v-22.4h8.74c5.82,0,9.34,2.94,9.34,7.81,0,3.46-1.79,5.95-4.93,7.07l5.31,7.52h-3.49ZM214.88,24.71c0-3.2-2.14-5.02-6.24-5.02h-5.44v10.08h5.44c4.1,0,6.24-1.86,6.24-5.06Z"/>
      <path class="cls-1" d="M230.56,29.35l-4.1,4.16v5.79h-3.2v-22.4h3.2v12.51l12.16-12.51h3.65l-9.57,10.08,10.18,12.32h-3.74l-8.58-9.95Z"/>
      <path class="cls-1" d="M274.14,33.25c0,3.84-2.91,6.05-8.58,6.05h-10.69v-22.4h10.05c5.15,0,8.03,2.18,8.03,5.79,0,2.43-1.25,4.13-3.01,4.99,2.53.7,4.19,2.59,4.19,5.57ZM258.08,19.49v7.17h6.56c3.26,0,5.12-1.22,5.12-3.58s-1.86-3.58-5.12-3.58h-6.56ZM270.91,33c0-2.59-1.92-3.74-5.47-3.74h-7.36v7.46h7.36c3.55,0,5.47-1.12,5.47-3.71Z"/>
      <path class="cls-1" d="M287.2,31.56v7.74h-3.17v-7.81l-8.9-14.59h3.42l7.17,11.81,7.2-11.81h3.17l-8.9,14.66Z"/>
      <path class="cls-1" d="M303.52,19.69h-7.68v-2.78h18.53v2.78h-7.68v19.61h-3.17v-19.61Z"/>
      <path class="cls-1" d="M334.11,36.52v2.78h-16.26v-22.4h15.81v2.78h-12.61v6.88h11.23v2.72h-11.23v7.23h13.06Z"/>
    </g>
    <g class="cls-2">
      <path class="cls-1" d="M155.8,59.7v19.6h-2.8v-8.74h-11.26v8.74h-2.8v-19.6h2.8v8.43h11.26v-8.43h2.8Z"/>
      <path class="cls-1" d="M161.51,70.85v-11.14h2.8v11.03c0,4.34,1.99,6.3,5.52,6.3s5.54-1.96,5.54-6.3v-11.03h2.72v11.14c0,5.68-3.11,8.68-8.29,8.68s-8.29-3-8.29-8.68Z"/>
      <path class="cls-1" d="M200.68,74.01c0,3.36-2.55,5.29-7.5,5.29h-9.35v-19.6h8.79c4.51,0,7.03,1.9,7.03,5.07,0,2.13-1.09,3.61-2.63,4.37,2.21.62,3.67,2.27,3.67,4.87ZM186.62,61.97v6.27h5.74c2.86,0,4.48-1.06,4.48-3.14s-1.62-3.14-4.48-3.14h-5.74ZM197.85,73.79c0-2.27-1.68-3.28-4.79-3.28h-6.44v6.52h6.44c3.11,0,4.79-.98,4.79-3.25Z"/>
    </g>
    <g class="cls-2">
      <path class="cls-3" d="M144.29,114.3l-2.24-3.15c-.25.03-.5.04-.78.04h-2.63v3.11h-1.04v-9.81h3.67c2.49,0,4.01,1.26,4.01,3.36,0,1.54-.81,2.62-2.24,3.08l2.4,3.36h-1.13ZM144.24,107.86c0-1.57-1.04-2.47-3-2.47h-2.61v4.92h2.61c1.96,0,3-.91,3-2.45Z"/>
      <path class="cls-3" d="M146.77,110.62c0-2.19,1.6-3.74,3.75-3.74s3.74,1.55,3.74,3.74-1.58,3.75-3.74,3.75-3.75-1.57-3.75-3.75ZM153.25,110.62c0-1.72-1.16-2.87-2.73-2.87s-2.75,1.15-2.75,2.87,1.18,2.87,2.75,2.87,2.73-1.15,2.73-2.87Z"/>
      <path class="cls-3" d="M163.75,110.62c0,2.23-1.57,3.75-3.67,3.75-1.22,0-2.24-.53-2.84-1.53v1.46h-.95v-10.39h.99v4.43c.62-.95,1.62-1.46,2.8-1.46,2.1,0,3.67,1.51,3.67,3.74ZM162.76,110.62c0-1.72-1.19-2.87-2.75-2.87s-2.75,1.15-2.75,2.87,1.18,2.87,2.75,2.87,2.75-1.15,2.75-2.87Z"/>
      <path class="cls-3" d="M165.04,110.62c0-2.19,1.6-3.74,3.75-3.74s3.74,1.55,3.74,3.74-1.58,3.75-3.74,3.75-3.75-1.57-3.75-3.75ZM171.52,110.62c0-1.72-1.16-2.87-2.73-2.87s-2.75,1.15-2.75,2.87,1.18,2.87,2.75,2.87,2.73-1.15,2.73-2.87Z"/>
      <path class="cls-3" d="M178.44,113.85c-.39.35-.98.52-1.55.52-1.39,0-2.16-.79-2.16-2.14v-4.45h-1.32v-.84h1.32v-1.61h.99v1.61h2.24v.84h-2.24v4.4c0,.87.45,1.34,1.27,1.34.41,0,.81-.13,1.09-.38l.35.71Z"/>
      <path class="cls-3" d="M180.02,104.61c0-.38.32-.7.73-.7s.73.31.73.69c0,.41-.31.73-.73.73s-.73-.32-.73-.71ZM180.24,106.93h.99v7.37h-.99v-7.37Z"/>
      <path class="cls-3" d="M183.26,110.62c0-2.2,1.6-3.74,3.8-3.74,1.25,0,2.3.49,2.89,1.46l-.74.5c-.5-.74-1.29-1.09-2.14-1.09-1.61,0-2.79,1.15-2.79,2.87s1.18,2.87,2.79,2.87c.85,0,1.64-.34,2.14-1.08l.74.5c-.59.95-1.64,1.46-2.89,1.46-2.2,0-3.8-1.55-3.8-3.75Z"/>
      <path class="cls-3" d="M194.83,113.11l.41-.8c.7.69,1.95,1.19,3.24,1.19,1.83,0,2.63-.77,2.63-1.74,0-2.69-6.04-1.04-6.04-4.67,0-1.44,1.12-2.69,3.61-2.69,1.11,0,2.26.32,3.04.87l-.35.83c-.84-.55-1.82-.81-2.69-.81-1.79,0-2.59.8-2.59,1.78,0,2.69,6.04,1.06,6.04,4.64,0,1.44-1.15,2.68-3.66,2.68-1.47,0-2.91-.52-3.64-1.27Z"/>
      <path class="cls-3" d="M210.81,106.93v7.37h-.95v-1.34c-.52.9-1.47,1.42-2.65,1.42-1.88,0-3.11-1.05-3.11-3.17v-4.27h.99v4.17c0,1.57.81,2.37,2.21,2.37,1.54,0,2.51-1,2.51-2.68v-3.87h.99Z"/>
      <path class="cls-3" d="M221.05,110.62c0,2.24-1.57,3.75-3.67,3.75-1.18,0-2.19-.5-2.8-1.46v4.1h-.99v-10.09h.95v1.46c.6-.98,1.62-1.51,2.84-1.51,2.1,0,3.67,1.51,3.67,3.74ZM220.06,110.62c0-1.71-1.19-2.87-2.75-2.87s-2.75,1.16-2.75,2.87,1.18,2.87,2.75,2.87,2.75-1.15,2.75-2.87Z"/>
      <path class="cls-3" d="M229.5,110.93h-6.16c.11,1.54,1.29,2.56,2.9,2.56.9,0,1.69-.32,2.25-.97l.56.64c-.66.78-1.68,1.21-2.84,1.21-2.3,0-3.87-1.57-3.87-3.75s1.53-3.74,3.6-3.74,3.57,1.53,3.57,3.74c0,.08-.01.2-.01.31ZM223.33,110.18h5.23c-.13-1.44-1.18-2.45-2.62-2.45s-2.48,1.01-2.61,2.45Z"/>
      <path class="cls-3" d="M235.25,106.88v.97c-.08,0-.17-.01-.24-.01-1.54,0-2.48.98-2.48,2.72v3.75h-.99v-7.37h.95v1.44c.46-.98,1.4-1.5,2.76-1.5Z"/>
      <path class="cls-3" d="M243.55,106.93l-3.28,7.37h-1.02l-3.26-7.37h1.04l2.76,6.28,2.79-6.28h.98Z"/>
      <path class="cls-3" d="M244.72,104.61c0-.38.32-.7.73-.7s.73.31.73.69c0,.41-.31.73-.73.73s-.73-.32-.73-.71ZM244.95,106.93h.99v7.37h-.99v-7.37Z"/>
      <path class="cls-3" d="M247.69,113.46l.45-.78c.59.46,1.58.83,2.62.83,1.4,0,1.98-.48,1.98-1.2,0-1.92-4.78-.41-4.78-3.32,0-1.2,1.04-2.1,2.91-2.1.95,0,1.99.27,2.61.69l-.43.8c-.64-.45-1.42-.63-2.17-.63-1.33,0-1.92.52-1.92,1.22,0,1.99,4.78.49,4.78,3.32,0,1.27-1.12,2.1-3.04,2.1-1.22,0-2.4-.39-3-.91Z"/>
      <path class="cls-3" d="M255.33,104.61c0-.38.32-.7.73-.7s.73.31.73.69c0,.41-.31.73-.73.73s-.73-.32-.73-.71ZM255.56,106.93h.99v7.37h-.99v-7.37Z"/>
      <path class="cls-3" d="M258.58,110.62c0-2.19,1.6-3.74,3.75-3.74s3.74,1.55,3.74,3.74-1.58,3.75-3.74,3.75-3.75-1.57-3.75-3.75ZM265.07,110.62c0-1.72-1.16-2.87-2.73-2.87s-2.75,1.15-2.75,2.87,1.18,2.87,2.75,2.87,2.73-1.15,2.73-2.87Z"/>
      <path class="cls-3" d="M274.88,110.03v4.27h-.99v-4.17c0-1.56-.81-2.35-2.21-2.35-1.58,0-2.58.98-2.58,2.66v3.87h-.99v-7.37h.95v1.36c.53-.9,1.53-1.42,2.8-1.42,1.79,0,3.03,1.04,3.03,3.15Z"/>
      <path class="cls-3" d="M289.13,107.86c0,2.09-1.51,3.35-4.01,3.35h-2.63v3.1h-1.04v-9.81h3.67c2.49,0,4.01,1.26,4.01,3.36ZM288.1,107.86c0-1.57-1.04-2.47-3-2.47h-2.61v4.9h2.61c1.96,0,3-.9,3-2.44Z"/>
      <path class="cls-3" d="M291.3,103.91h.99v10.39h-.99v-10.39Z"/>
      <path class="cls-3" d="M300.63,109.74v4.57h-.95v-1.15c-.45.76-1.32,1.22-2.54,1.22-1.67,0-2.69-.87-2.69-2.14,0-1.13.73-2.09,2.84-2.09h2.34v-.45c0-1.26-.71-1.95-2.09-1.95-.95,0-1.85.34-2.45.87l-.45-.74c.74-.63,1.83-.99,3-.99,1.9,0,2.98.95,2.98,2.86ZM299.63,112.09v-1.21h-2.31c-1.43,0-1.89.56-1.89,1.32,0,.85.69,1.39,1.86,1.39s1.95-.53,2.34-1.5Z"/>
      <path class="cls-3" d="M307.21,113.85c-.39.35-.98.52-1.55.52-1.39,0-2.16-.79-2.16-2.14v-4.45h-1.32v-.84h1.32v-1.61h1v1.61h2.24v.84h-2.24v4.4c0,.87.45,1.34,1.27,1.34.41,0,.81-.13,1.09-.38l.35.71Z"/>
      <path class="cls-3" d="M310.14,106.07v.87h2.27v.84h-2.24v6.53h-1v-6.53h-1.32v-.84h1.32v-.91c0-1.32.79-2.19,2.23-2.19.54,0,1.11.15,1.47.46l-.34.74c-.28-.24-.67-.36-1.09-.36-.85,0-1.3.48-1.3,1.39Z"/>
      <path class="cls-3" d="M312.89,110.62c0-2.19,1.6-3.74,3.75-3.74s3.74,1.55,3.74,3.74-1.58,3.75-3.74,3.75-3.75-1.57-3.75-3.75ZM319.37,110.62c0-1.72-1.16-2.87-2.73-2.87s-2.75,1.15-2.75,2.87,1.18,2.87,2.75,2.87,2.73-1.15,2.73-2.87Z"/>
      <path class="cls-3" d="M326.12,106.88v.97c-.08,0-.17-.01-.24-.01-1.54,0-2.48.98-2.48,2.72v3.75h-.99v-7.37h.95v1.44c.46-.98,1.4-1.5,2.76-1.5Z"/>
      <path class="cls-3" d="M340.07,110.03v4.27h-.99v-4.17c0-1.56-.78-2.35-2.12-2.35-1.51,0-2.46.98-2.46,2.66v3.87h-1v-4.17c0-1.56-.78-2.35-2.13-2.35-1.5,0-2.47.98-2.47,2.66v3.87h-.99v-7.37h.95v1.34c.52-.88,1.47-1.4,2.7-1.4s2.17.52,2.62,1.55c.53-.95,1.58-1.55,2.91-1.55,1.79,0,2.97,1.04,2.97,3.15Z"/>
    </g>
  </g>
</svg>